<svg xmlns="http://www.w3.org/2000/svg" viewBox="2125 388 18 18">
  <defs>
    <style>
      .cls-1 {
        fill: none;
      }

      .cls-2 {
        fill: #656565;
      }
    </style>
  </defs>
  <g id="calendar" transform="translate(1250 -20)">
    <rect id="Rectangle_1319" data-name="Rectangle 1319" class="cls-1" width="18" height="18" transform="translate(875 408)"/>
    <path id="Path_147" data-name="Path 147" class="cls-2" d="M6.6,7.4H5.4V8.6H6.6ZM9,7.4H7.8V8.6H9Zm2.4,0H10.2V8.6h1.2Zm1.2-4.2H12V2H10.8V3.2H6V2H4.8V3.2H4.2A1.2,1.2,0,0,0,3.006,4.4L3,12.8A1.2,1.2,0,0,0,4.2,14h8.4a1.2,1.2,0,0,0,1.2-1.2V4.4A1.2,1.2,0,0,0,12.6,3.2Zm0,9.6H4.2V6.2h8.4Z" transform="translate(876 409)"/>
  </g>
</svg>
