<svg xmlns="http://www.w3.org/2000/svg" viewBox="1505 387 18 18">
  <defs>
    <style>
      .cls-1 {
        fill: #656565;
      }

      .cls-2 {
        fill: none;
      }
    </style>
  </defs>
  <g id="briefcase" transform="translate(1259 -46)">
    <path id="briefcase-2" data-name="briefcase" class="cls-1" d="M6.532,12.648h4.7a.8.8,0,0,0,.808-.808c-.015-1.2,0-2.423,0-3.627,0-.132,0-.147-.132-.117a22.222,22.222,0,0,1-3.936.514c-.1,0-.132.044-.132.147v.631a.524.524,0,0,1-.558.558H5.842a.519.519,0,0,1-.573-.573V8.727c0-.088-.029-.132-.117-.132L4.52,8.551A29.086,29.086,0,0,1,1.172,8.1c-.132-.029-.132-.029-.132.1v3.686a.683.683,0,0,0,.073.308.789.789,0,0,0,.749.441c1.557.015,3.113.015,4.67.015Zm.015-4.009h0c-.235,0-.47,0-.72-.015-.088,0-.132.029-.132.117v.6c0,.117.029.147.147.147h1.38c.1,0,.147-.044.147-.147V8.756c0-.088-.029-.132-.132-.132-.22.015-.455.015-.69.015ZM9.821,4.806H8.338c-.1,0-.132-.029-.132-.132V4.13a.668.668,0,0,0-.676-.69H5.548a.672.672,0,0,0-.69.69v.529c0,.1-.044.132-.132.132H1.876a.806.806,0,0,0-.837.822c.029.6,0,1.2,0,1.792,0,.206,0,.191.206.235.646.1,1.292.176,1.938.235.866.088,1.733.132,2.6.162a33.461,33.461,0,0,0,4.2-.147c.646-.073,1.292-.147,1.924-.264a.14.14,0,0,0,.132-.162V5.481a.483.483,0,0,0-.059-.25.755.755,0,0,0-.734-.441C10.776,4.806,10.291,4.806,9.821,4.806Zm-3.3,0H5.533c-.1,0-.132-.029-.132-.132V4.218c0-.147.044-.191.191-.191H7.457c.132,0,.176.044.176.176v.47c0,.132-.015.132-.132.147-.323-.015-.646-.015-.984-.015Z" transform="translate(248.961 433.56)"/>
    <rect id="Rectangle_1330" data-name="Rectangle 1330" class="cls-2" width="18" height="18" transform="translate(246 433)"/>
  </g>
</svg>
