<svg xmlns="http://www.w3.org/2000/svg" viewBox="1505 363 18 18">
  <defs>
    <style>
      .cls-1 {
        fill: none;
      }

      .cls-2 {
        fill: #656565;
      }
    </style>
  </defs>
  <g id="graduation-cap" transform="translate(1259 -46)">
    <rect id="Rectangle_1321" data-name="Rectangle 1321" class="cls-1" width="18" height="18" transform="translate(246 409)"/>
    <path id="graduation-cap-2" data-name="graduation-cap" class="cls-2" d="M6.234,3.419c-.876.455-1.734.893-2.593,1.349-.088.052-.175.123-.3.21-.333-.175-.736-.333-1.1-.526C1.573,4.137.89,3.8.225,3.489.119,3.437-.021,3.4,0,3.244,0,3.086.119,3.051.242,3,2.327,2.035,4.429,1.019,6.514.02a1.04,1.04,0,0,1,.964,0c2.085,1,4.2,2,6.29,3,.105.052.228.088.228.228,0,.123-.105.193-.228.228-1.665.806-3.329,1.594-4.993,2.4-.455.21-.876.438-1.331.631a.97.97,0,0,1-.928,0c-.824-.386-1.647-.788-2.453-1.174-.017,0-.017-.017-.035-.017a1.525,1.525,0,0,0-.175-.123c.052-.035.088-.105.158-.123.824-.438,1.647-.858,2.488-1.3a.6.6,0,0,1,.245-.035,1.3,1.3,0,0,0,.771-.105.383.383,0,0,0,0-.718A1.046,1.046,0,0,0,6.5,2.877a.5.5,0,0,0-.263.543Zm5.133,1.647V6.642a1.194,1.194,0,0,1-.245.771,3.533,3.533,0,0,1-1.051.911,5.845,5.845,0,0,1-5.554.333A.194.194,0,0,1,4.394,8.5c-.105-.858-.21-1.717-.315-2.593V5.784a.289.289,0,0,1,.105.052c.771.368,1.524.736,2.3,1.1a1.117,1.117,0,0,0,1.051,0c1.227-.6,2.47-1.191,3.7-1.769a.175.175,0,0,1,.14-.105Zm-7.761.543c.052.35.088.718.123,1.051.105.876.228,1.752.35,2.628a.459.459,0,0,1-.228.49.507.507,0,0,1-.543,0,.447.447,0,0,1-.228-.49c.123-1.016.263-2.032.4-3.048.052-.21.088-.421.123-.631h0ZM2.905,7.5A1.072,1.072,0,0,1,2.59,6.73V5.048c.21.088.368.175.543.263a.134.134,0,0,1,.035.088c-.088.666-.158,1.367-.263,2.1Z" transform="translate(248.005 413.098)"/>
  </g>
</svg>
